.
..............................Site Info...........................

 -   http://www.scenetime.com  *_*    

Scenetime .Always on time . friendly online private torrent community ..

     We care to share . Join us on  http://www.scenetime.com 

    Be the first to get new release at  http://www.scenetime.com

        Seed back for speed


...................................NFO:.................................................                                                                                                     
       
     
     
       
       
     
     
                                         
                                         
                EXVID                    
                                         
         
                                         
         Filled the Archives             
                                         
         
                                         
                With:                    
                                         
         
                                         
                                    
     E240                           
                                    
     SP               (C) 2009      
                                         
     
     
     
                                                                                  
                                                                                   
                The.Devils.Rock.2011.WS.DVDRip.XviD-EXViD                           
                                                                                   
                                                                                  
     
                                                                                               
EXViD aims to iNTERNAL those releases which have been lost in the archives.
EXViD aims to PRE non-internal releases which have poor sources and are likely skipped by others. 
http://www.imdb.com/title/tt1712578/
Subtitles: English HI
Date: 2012.10

Director: Paul Campion

Genre: Action | Drama | Fantasy | Horror | Thriller | War

Plot:
Two Kiwi commandos are assigned to the Channel Islands to blow up a giant gun at a beach
head fortress. But once inside the foreboding structure they hear unearthly screams and
investigate the dark tunnel system to discover the cause. There they find the head of
Hitler's occult Gestapo squadron who has been experimenting with incantations from an
ancient tome to allow a succubus to cross over from Hell. It's all part of a master plan
to win the war on the eve of D-Day.

Cast:
Craig Hall	 ...	Captain Ben Grogan
Matthew Sunderland	 ...	Col Klaus Meyer
Gina Varela	 ...	Helena
Karlos Drinkwater	 ...	Sergeant Joe Tane
Luke Hawker	 ...	Private Muller
Jessica Grace Smith	 ...	Nicole
Nick Dunbar	 ...	Kreigsmarine #1
Jonathan King	 ...	Dead German
Hadyn Green	 ...	Dead German
Geraldine Brophy	 ...	Voice of Demon

Stats:
Format                           : AVI
Format/Info                      : Audio Video Interleave
File size                        : 695 MiB
Duration                         : 1h 26mn
Overall bit rate                 : 1 128 Kbps
Writing application              : Nandub v1.0rc2
Writing library                  : Nandub build 1852/release

Video
ID                               : 0
Format                           : MPEG-4 Visual
Format profile                   : Advanced Simple@L5
Format settings, BVOP            : No
Format settings, QPel            : No
Format settings, GMC             : No warppoints
Format settings, Matrix          : Default (H.263)
Codec ID                         : XVID
Codec ID/Hint                    : XviD
Duration                         : 1h 26mn
Bit rate                         : 737 Kbps
Width                            : 640 pixels
Height                           : 272 pixels
Display aspect ratio             : 2.35:1
Frame rate                       : 23.976 fps
Color space                      : YUV
Chroma subsampling               : 4:2:0
Bit depth                        : 8 bits
Scan type                        : Progressive
Compression mode                 : Lossy
Bits/(Pixel*Frame)               : 0.177
Stream size                      : 455 MiB (65%)
Writing library                  : XviD 64

Audio
ID                               : 1
Format                           : AC-3
Format/Info                      : Audio Coding 3
Mode extension                   : CM (complete main)
Codec ID                         : 2000
Duration                         : 1h 26mn
Bit rate mode                    : Constant
Bit rate                         : 384 Kbps
Channel(s)                       : 6 channels
Channel positions                : Front: L C R, Side: L R, LFE
Sampling rate                    : 48.0 KHz
Bit depth                        : 16 bits
Compression mode                 : Lossy
Stream size                      : 237 MiB (34%)
Alignment                        : Aligned on interleaves
Interleave, duration             : 96 ms (2.30 video frames)
Interleave, preload duration     : 96 ms




Release notes:
TASTE rip was 1.82:1. Ours is 2.35:1.

enjoy!

Looking for:
75TB+ Archives
DUTCH/FLEMiSH Archives
                                                                                                    
Greets: CRBS EPiSODE FiCO FLS iLS KLASSiGER LiPSYNC MADE NODLABS RUNNER SPRiNTER      
   

                                                                    ASCII DONE BY XX^NFO 2oo9